<?xml version="1.0" encoding="utf-8"?>
<!-- Generator: Adobe Illustrator 16.0.0, SVG Export Plug-In . SVG Version: 6.00 Build 0)  -->
<!DOCTYPE svg PUBLIC "-//W3C//DTD SVG 1.1//EN" "http://www.w3.org/Graphics/SVG/1.1/DTD/svg11.dtd">
<svg version="1.1" xmlns="http://www.w3.org/2000/svg" xmlns:xlink="http://www.w3.org/1999/xlink" x="0px" y="0px" width="101px"
	 height="101px" viewBox="0 0 101 101" enable-background="new 0 0 101 101" xml:space="preserve">
<g id="nought">
	<path id="color" display="inline" fill="#565452" d="M50.5,0.5c-27.61,0-50,22.39-50,50s22.39,50,50,50s50-22.39,50-50
		S78.11,0.5,50.5,0.5z M50.5,75.5c-13.81,0-25-11.19-25-25c0-13.81,11.19-25,25-25s25,11.19,25,25C75.5,64.31,64.31,75.5,50.5,75.5z
		"/>
	<path id="shadow" display="inline" fill="#454242" d="M51,100.5c27.61,0,50-22.39,50-50s-22.39-50-50-50c0,0,47.99-0.85,47.99,50
		C98.99,101,51,100.5,51,100.5z"/>
	<path id="highlight_1_" display="inline" fill="#878584" d="M50.5,0.5c-27.61,0-50,22.39-50,50s22.39,50,50,50
		c0,0-47.99,0.85-47.99-50C2.51,0,50.5,0.5,50.5,0.5z"/>
	<path id="outline" display="inline" fill="none" stroke="#262626" stroke-miterlimit="10" d="M50.5,0.5c-27.61,0-50,22.39-50,50
		s22.39,50,50,50s50-22.39,50-50S78.11,0.5,50.5,0.5z M50.5,75.5c-13.81,0-25-11.19-25-25c0-13.81,11.19-25,25-25s25,11.19,25,25
		C75.5,64.31,64.31,75.5,50.5,75.5z"/>
</g>
</svg>